<svg width="32" height="32" viewBox="0 0 116 116" fill="none" xmlns="http://www.w3.org/2000/svg">
<g filter="url(#filter0_d)">
<circle cx="58" cy="54" r="54" fill="white"/>
<path d="M112 54C112 83.8234 87.8234 108 58 108C28.1766 108 4 83.8234 4 54C4 24.1766 28.1766 0 58 0C87.8234 0 112 24.1766 112 54ZM22.9712 54C22.9712 73.3459 38.6541 89.0288 58 89.0288C77.3459 89.0288 93.0288 73.3459 93.0288 54C93.0288 34.6541 77.3459 18.9712 58 18.9712C38.6541 18.9712 22.9712 34.6541 22.9712 54Z" fill="#007ABD"/>
<circle cx="58" cy="54" r="25" fill="#007ABD"/>
<rect x="79" y="22" width="14" height="64" fill="white"/>
<path d="M79.5 73C74.8587 73 70.4075 71.1563 67.1256 67.8744C63.8437 64.5925 62 60.1413 62 55.5C62 50.8587 63.8437 46.4075 67.1256 43.1256C70.4075 39.8437 74.8587 38 79.5 38L79.5 55.5V73Z" fill="white"/>
</g>
<defs>
<filter id="filter0_d" x="0" y="0" width="116" height="116" filterUnits="userSpaceOnUse" color-interpolation-filters="sRGB">
<feFlood flood-opacity="0" result="BackgroundImageFix"/>
<feColorMatrix in="SourceAlpha" type="matrix" values="0 0 0 0 0 0 0 0 0 0 0 0 0 0 0 0 0 0 127 0"/>
<feOffset dy="4"/>
<feGaussianBlur stdDeviation="2"/>
<feColorMatrix type="matrix" values="0 0 0 0 0 0 0 0 0 0 0 0 0 0 0 0 0 0 0.25 0"/>
<feBlend mode="normal" in2="BackgroundImageFix" result="effect1_dropShadow"/>
<feBlend mode="normal" in="SourceGraphic" in2="effect1_dropShadow" result="shape"/>
</filter>
</defs>
</svg>
